<svg xmlns="http://www.w3.org/2000/svg" viewBox="0 0 512 512">
  <rect width="512" height="512" fill="#fffdf5"/>
  <path d="M75 355c60-36 116-39 168-9 61 34 125 30 192-12" fill="none" stroke="#111" stroke-width="13" stroke-linecap="round"/>
  <path d="M78 358c62-28 116-28 162 0 59 36 123 32 192-11" fill="none" stroke="#8fc8d5" stroke-width="30" stroke-linecap="round"/>
  <path d="M128 318l128-92 128 92" fill="#e5c36b" stroke="#111" stroke-width="13" stroke-linejoin="round"/>
  <path d="M164 318h184v70H164z" fill="#f8e3a1" stroke="#111" stroke-width="13" stroke-linejoin="round"/>
  <path d="M214 388V337h84v51" fill="#fffdf5" stroke="#111" stroke-width="10" stroke-linejoin="round"/>
  <path d="M113 219c33-26 68-25 105 3M296 218c35-27 71-26 109 2" fill="none" stroke="#6fbf7a" stroke-width="17" stroke-linecap="round"/>
  <path d="M92 424c51 13 101 14 151 3 57-13 115-11 175 6" fill="none" stroke="#111" stroke-width="9" stroke-linecap="round" opacity=".65"/>
</svg>
